<svg xmlns="http://www.w3.org/2000/svg" xmlns:xlink="http://www.w3.org/1999/xlink" width="56.5" height="56.5" viewBox="0 0 56.5 56.5">
  <defs>
    <filter id="Path_88" x="0" y="0" width="56.5" height="56.5" filterUnits="userSpaceOnUse">
      <feOffset dy="3" input="SourceAlpha"/>
      <feGaussianBlur stdDeviation="3" result="blur"/>
      <feFlood flood-opacity="0.161"/>
      <feComposite operator="in" in2="blur"/>
      <feComposite in="SourceGraphic"/>
    </filter>
  </defs>
  <g id="close" transform="translate(9 6)">
    <g transform="matrix(1, 0, 0, 1, -9, -6)" filter="url(#Path_88)">
      <path id="Path_88-2" data-name="Path 88" d="M19.25,0A19.25,19.25,0,1,1,0,19.25,19.25,19.25,0,0,1,19.25,0Z" transform="translate(9 6)" fill="#fff"/>
    </g>
    <path id="Mask" d="M7.5,16.188V9.871H1.184a1.184,1.184,0,1,1,0-2.369H7.5V1.184a1.184,1.184,0,1,1,2.369,0V7.5h6.317a1.184,1.184,0,1,1,0,2.369H9.871v6.317a1.184,1.184,0,1,1-2.369,0Z" transform="translate(7.618 19.903) rotate(-45)" fill="#32b4d6"/>
  </g>
</svg>
