<svg xmlns="http://www.w3.org/2000/svg" xmlns:xlink="http://www.w3.org/1999/xlink" width="52" height="54" viewBox="0 0 52 54">
  <defs>
    <filter id="Path_101" x="0" y="0" width="52" height="54" filterUnits="userSpaceOnUse">
      <feOffset dy="3" input="SourceAlpha"/>
      <feGaussianBlur stdDeviation="3" result="blur"/>
      <feFlood flood-opacity="0.161"/>
      <feComposite operator="in" in2="blur"/>
      <feComposite in="SourceGraphic"/>
    </filter>
  </defs>
  <g id="down" transform="translate(9 6)">
    <g transform="matrix(1, 0, 0, 1, -9, -6)" filter="url(#Path_101)">
      <path id="Path_101-2" data-name="Path 101" d="M9,0H34V36H9c-4.971,0-9-4.835-9-10.8V10.8C0,4.835,4.029,0,9,0Z" transform="translate(9 6)" fill="#fff"/>
    </g>
    <path id="Path_100" data-name="Path 100" d="M7.522,170,.151,162.683a.6.6,0,0,1,0-.847l.986-.986a.6.6,0,0,1,.847,0l5.962,5.9,5.962-5.9a.6.6,0,0,1,.847,0l.986.986a.6.6,0,0,1,0,.847L8.369,170a.6.6,0,0,1-.847,0Z" transform="translate(10.464 -146.423)" fill="#32b4d6"/>
  </g>
</svg>
