<svg id="Shape_1055" data-name="Shape 1055" xmlns="http://www.w3.org/2000/svg" width="14.076" height="12.324" viewBox="0 0 14.076 12.324">
  <path id="Shape_1055-2" data-name="Shape 1055" d="M3268.262,919.1l-.564.551a.329.329,0,0,0,0,.472l4.42,4.317H3261.08a.338.338,0,0,0-.342.334v.779a.338.338,0,0,0,.342.334h11.039l-4.42,4.318a.329.329,0,0,0,0,.472l.564.551a.348.348,0,0,0,.484,0l5.967-5.828a.329.329,0,0,0,0-.472l-5.967-5.828A.348.348,0,0,0,3268.262,919.1Z" transform="translate(-3260.737 -919.003)" fill="#fff"/>
</svg>
