<svg xmlns="http://www.w3.org/2000/svg" width="26.744" height="26.744" viewBox="0 0 26.744 26.744">
  <path id="Path_92" data-name="Path 92" d="M23.879,32H2.865A2.865,2.865,0,0,0,0,34.865V55.879a2.865,2.865,0,0,0,2.865,2.865H23.879a2.865,2.865,0,0,0,2.865-2.865V34.865A2.865,2.865,0,0,0,23.879,32ZM13.372,37.134a2.507,2.507,0,1,1-2.507,2.507A2.507,2.507,0,0,1,13.372,37.134ZM16.715,52.3a.716.716,0,0,1-.716.716H10.745a.716.716,0,0,1-.716-.716V50.864a.716.716,0,0,1,.716-.716h.716V46.327h-.716a.716.716,0,0,1-.716-.716V44.178a.716.716,0,0,1,.716-.716h3.821a.716.716,0,0,1,.716.716v5.97H16a.716.716,0,0,1,.716.716Z" transform="translate(0 -32)" fill="#32b4d6"/>
</svg>
