<svg xmlns="http://www.w3.org/2000/svg" width="100.897" height="100.897" viewBox="0 0 100.897 100.897">
  <path id="Path_94" data-name="Path 94" d="M8,58.449A50.449,50.449,0,1,1,58.449,108.9,50.449,50.449,0,0,1,8,58.449Zm14.739,25.6a43.942,43.942,0,0,0,71.419,0A13.426,13.426,0,0,0,84.081,72.587L77.5,70.941a29.3,29.3,0,0,1-38.094,0l-6.586,1.646A13.426,13.426,0,0,0,22.739,84.053ZM35.665,48.684A22.783,22.783,0,1,0,58.449,25.9,22.783,22.783,0,0,0,35.665,48.684Z" transform="translate(-8 -8)" fill="#bfbfbf"/>
</svg>
